<svg width="130" height="173" viewBox="0 0 130 173" fill="none" xmlns="http://www.w3.org/2000/svg">
<g id="undraw_mobile_app_re_catg 1" clip-path="url(#clip0_1178_1321)">
<path id="Vector" d="M119.751 44.413H113.706C113.397 44.4126 113.102 44.29 112.884 44.072C112.666 43.8541 112.543 43.5586 112.543 43.2503V37.2046C112.543 36.8964 112.666 36.6009 112.884 36.3829C113.102 36.1649 113.397 36.0423 113.706 36.042H119.751C120.06 36.0423 120.355 36.1649 120.573 36.3829C120.791 36.6009 120.914 36.8964 120.914 37.2046V43.2503C120.914 43.5586 120.791 43.8541 120.573 44.072C120.355 44.29 120.06 44.4126 119.751 44.413ZM113.706 36.507C113.521 36.5072 113.343 36.5808 113.213 36.7116C113.082 36.8424 113.008 37.0197 113.008 37.2046V43.2503C113.008 43.4353 113.082 43.6126 113.213 43.7434C113.343 43.8741 113.521 43.9477 113.706 43.9479H119.751C119.936 43.9477 120.114 43.8741 120.244 43.7434C120.375 43.6126 120.449 43.4353 120.449 43.2503V37.2046C120.449 37.0197 120.375 36.8424 120.244 36.7116C120.114 36.5808 119.936 36.5072 119.751 36.507H113.706Z" fill="#F0F1F3"/>
<path id="Vector_2" d="M49.2957 8.37097H43.25C42.9418 8.37062 42.6463 8.24801 42.4283 8.03005C42.2104 7.81209 42.0878 7.51657 42.0874 7.20833V1.16263C42.0878 0.854393 42.2104 0.558877 42.4283 0.340917C42.6463 0.122957 42.9418 0.000352639 43.25 0H49.2957C49.604 0.000352639 49.8995 0.122957 50.1174 0.340917C50.3354 0.558877 50.458 0.854393 50.4584 1.16263V7.20833C50.458 7.51657 50.3354 7.81209 50.1174 8.03005C49.8995 8.24801 49.604 8.37062 49.2957 8.37097ZM43.25 0.465054C43.0651 0.465256 42.8878 0.538815 42.757 0.669593C42.6262 0.800371 42.5527 0.977686 42.5525 1.16263V7.20833C42.5527 7.39328 42.6262 7.5706 42.757 7.70137C42.8878 7.83215 43.0651 7.90571 43.25 7.90591H49.2957C49.4807 7.90571 49.658 7.83215 49.7888 7.70137C49.9196 7.5706 49.9931 7.39328 49.9933 7.20833V1.16263C49.9931 0.977686 49.9196 0.800371 49.7888 0.669593C49.658 0.538815 49.4807 0.465256 49.2957 0.465054H43.25Z" fill="#F0F1F3"/>
<path id="Vector_3" d="M116.031 41.3895H109.985C109.677 41.3892 109.382 41.2666 109.164 41.0486C108.946 40.8306 108.823 40.5351 108.823 40.2269V34.1812C108.823 33.8729 108.946 33.5774 109.164 33.3595C109.382 33.1415 109.677 33.0189 109.985 33.0186H116.031C116.339 33.0189 116.635 33.1415 116.853 33.3595C117.071 33.5774 117.193 33.8729 117.194 34.1812V40.2269C117.193 40.5351 117.071 40.8306 116.853 41.0486C116.635 41.2666 116.339 41.3892 116.031 41.3895ZM109.985 33.4836C109.8 33.4838 109.623 33.5574 109.492 33.6881C109.361 33.8189 109.288 33.9962 109.288 34.1812V40.2269C109.288 40.4118 109.361 40.5892 109.492 40.7199C109.623 40.8507 109.8 40.9243 109.985 40.9245H116.031C116.216 40.9243 116.393 40.8507 116.524 40.7199C116.655 40.5892 116.728 40.4118 116.729 40.2269V34.1812C116.728 33.9962 116.655 33.8189 116.524 33.6881C116.393 33.5574 116.216 33.4838 116.031 33.4836H109.985Z" fill="#F0F1F3"/>
<path id="Vector_4" d="M10.9288 91.8485H4.88309C4.57485 91.8482 4.27934 91.7255 4.06138 91.5076C3.84342 91.2896 3.72081 90.9941 3.72046 90.6859V84.6402C3.72081 84.3319 3.84342 84.0364 4.06138 83.8185C4.27934 83.6005 4.57485 83.4779 4.88309 83.4775H10.9288C11.237 83.4779 11.5325 83.6005 11.7505 83.8185C11.9685 84.0364 12.0911 84.3319 12.0914 84.6402V90.6859C12.0911 90.9941 11.9685 91.2896 11.7505 91.5076C11.5325 91.7255 11.237 91.8482 10.9288 91.8485ZM4.88309 83.9426C4.69815 83.9428 4.52083 84.0164 4.39005 84.1471C4.25927 84.2779 4.18571 84.4552 4.18551 84.6402V90.6859C4.18571 90.8708 4.25927 91.0481 4.39005 91.1789C4.52083 91.3097 4.69815 91.3833 4.88309 91.3835H10.9288C11.1137 91.3833 11.2911 91.3097 11.4218 91.1789C11.5526 91.0481 11.6262 90.8708 11.6264 90.6859V84.6402C11.6262 84.4552 11.5526 84.2779 11.4218 84.1471C11.2911 84.0164 11.1137 83.9428 10.9288 83.9426H4.88309Z" fill="#F0F1F3"/>
<path id="Vector_5" d="M7.20833 88.8251H1.16263C0.854393 88.8247 0.558877 88.7021 0.340917 88.4841C0.122957 88.2662 0.000352639 87.9707 0 87.6624V81.6167C0.000352639 81.3085 0.122957 81.013 0.340917 80.795C0.558877 80.5771 0.854393 80.4545 1.16263 80.4541H7.20833C7.51657 80.4545 7.81209 80.5771 8.03005 80.795C8.24801 81.013 8.37062 81.3085 8.37097 81.6167V87.6624C8.37062 87.9707 8.24801 88.2662 8.03005 88.4841C7.81209 88.7021 7.51657 88.8247 7.20833 88.8251ZM1.16263 80.9192C0.977686 80.9194 0.800371 80.9929 0.669593 81.1237C0.538815 81.2545 0.465256 81.4318 0.465054 81.6167V87.6624C0.465256 87.8474 0.538815 88.0247 0.669593 88.1555C0.800371 88.2863 0.977686 88.3598 1.16263 88.36H7.20833C7.39328 88.3598 7.5706 88.2863 7.70137 88.1555C7.83215 88.0247 7.90571 87.8474 7.90591 87.6624V81.6167C7.90571 81.4318 7.83215 81.2545 7.70137 81.1237C7.5706 80.9929 7.39328 80.9194 7.20833 80.9192H1.16263Z" fill="#F0F1F3"/>
<path id="Vector_6" d="M21.4923 20.0061H77.4419C80.1418 20.0061 82.7613 20.9247 84.8699 22.6108C86.9785 24.2969 88.4507 26.6503 89.0445 29.2841L117.315 154.678C117.623 156.046 117.628 157.465 117.331 158.835C117.033 160.205 116.439 161.493 115.59 162.609C114.742 163.725 113.66 164.643 112.419 165.296C111.179 165.95 109.811 166.324 108.41 166.393L50.8938 169.227C47.814 169.379 44.7841 168.405 42.3697 166.487C39.9552 164.569 38.3211 161.838 37.7722 158.804L21.7356 70.1486L20.5426 70.4895L17.4741 53.6861L18.7022 53.3791L14.2258 28.6322C14.0341 27.5723 14.0786 26.4831 14.3561 25.4423C14.6335 24.4015 15.1372 23.4347 15.8312 22.6109C16.5252 21.7871 17.3923 21.1265 18.3709 20.6763C19.3494 20.226 20.4152 19.9972 21.4923 20.0061Z" fill="url(#paint0_linear_1178_1321)"/>
<path id="Vector_7" d="M70.0762 22.709H76.6072C78.4828 22.709 80.3019 23.3504 81.7627 24.5269C83.2235 25.7033 84.238 27.3439 84.6378 29.1764L111.773 153.547C111.93 154.264 111.929 155.005 111.773 155.721C111.616 156.437 111.307 157.111 110.866 157.696C110.426 158.282 109.864 158.765 109.219 159.114C108.574 159.462 107.862 159.667 107.13 159.715L49.7999 163.473C48.1825 163.579 46.5827 163.085 45.3058 162.087C44.0289 161.089 43.1642 159.655 42.8769 158.06L19.722 29.5104C19.5721 28.6784 19.6067 27.8236 19.8232 27.0064C20.0398 26.1892 20.4331 25.4295 20.9753 24.7809C21.5175 24.1322 22.1955 23.6105 22.9614 23.2525C23.7273 22.8945 24.5624 22.709 25.4078 22.709H31.6035C32.2031 22.709 32.7861 22.9067 33.262 23.2714C33.738 23.6362 34.0804 24.1477 34.2363 24.7267C34.3739 25.2379 34.6762 25.6895 35.0964 26.0115C35.5166 26.3335 36.0312 26.508 36.5606 26.508H65.9737C67.0103 26.508 68.0088 26.1167 68.7694 25.4124C69.53 24.7081 69.9967 23.7426 70.0762 22.709Z" fill="white"/>
<path id="Vector_8" d="M24.1829 43.8555H86.3782L93.0041 73.7105L29.996 74.8732L24.1829 43.8555Z" fill="#F0F1F3"/>
<path id="Vector_9" d="M83.2446 100.395H97.8871L98.3521 103.198H83.7097L83.2446 100.395Z" fill="#F0F1F3"/>
<path id="Vector_10" d="M95.1581 86.0941L33.0583 87.4092L33.0645 87.7014L95.1643 86.3864L95.1581 86.0941Z" fill="#858D9D"/>
<path id="Vector_11" d="M97.0574 94.7156L33.7887 96.1768L33.7954 96.469L97.0641 95.0078L97.0574 94.7156Z" fill="#858D9D"/>
<path id="Vector_12" d="M89.2903 130.391H103.933L104.398 133.194H89.7553L89.2903 130.391Z" fill="#F0F1F3"/>
<path id="Vector_13" d="M101.204 116.09L39.1041 117.405L39.1103 117.698L101.21 116.382L101.204 116.09Z" fill="#858D9D"/>
<path id="Vector_14" d="M103.103 124.712L39.8345 126.173L39.8412 126.465L103.11 125.004L103.103 124.712Z" fill="#858D9D"/>
</g>
<defs>
<linearGradient id="paint0_linear_1178_1321" x1="65.8295" y1="20.0059" x2="-146.9" y2="250.771" gradientUnits="userSpaceOnUse">
<stop stop-color="#384BCA"/>
<stop offset="1" stop-color="#7B8CFF"/>
</linearGradient>
<clipPath id="clip0_1178_1321">
<rect width="130" height="173" fill="white"/>
</clipPath>
</defs>
</svg>
