<svg width="277" height="298" viewBox="0 0 277 298" fill="none" xmlns="http://www.w3.org/2000/svg">
<g filter="url(#filter0_ddd_758_5755)">
<rect x="13.5" y="3" width="250" height="250" rx="20" fill="white"/>
<path d="M149.542 228V205.778H171.627V228H149.542ZM127.457 205.778V150.222H149.542V205.778H127.457ZM215.798 172.444V128H237.883V172.444H215.798ZM193.713 128V105.778H215.798V128H193.713ZM61.2022 150.222V128H83.2873V150.222H61.2022ZM39.1172 128V105.778H61.2022V128H39.1172ZM138.5 50.2222V28H160.585V50.2222H138.5ZM55.681 78H88.8085V44.6667H55.681V78ZM50.1597 94.6667C47.031 94.6667 44.4102 93.6 42.2974 91.4667C40.1773 89.3407 39.1172 86.7037 39.1172 83.5556V39.1111C39.1172 35.963 40.1773 33.3222 42.2974 31.1889C44.4102 29.063 47.031 28 50.1597 28H94.3298C97.4585 28 100.083 29.063 102.203 31.1889C104.316 33.3222 105.372 35.963 105.372 39.1111V83.5556C105.372 86.7037 104.316 89.3407 102.203 91.4667C100.083 93.6 97.4585 94.6667 94.3298 94.6667H50.1597ZM55.681 211.333H88.8085V178H55.681V211.333ZM50.1597 228C47.031 228 44.4102 226.933 42.2974 224.8C40.1773 222.674 39.1172 220.037 39.1172 216.889V172.444C39.1172 169.296 40.1773 166.656 42.2974 164.522C44.4102 162.396 47.031 161.333 50.1597 161.333H94.3298C97.4585 161.333 100.083 162.396 102.203 164.522C104.316 166.656 105.372 169.296 105.372 172.444V216.889C105.372 220.037 104.316 222.674 102.203 224.8C100.083 226.933 97.4585 228 94.3298 228H50.1597ZM188.191 78H221.319V44.6667H188.191V78ZM182.67 94.6667C179.541 94.6667 176.921 93.6 174.808 91.4667C172.688 89.3407 171.627 86.7037 171.627 83.5556V39.1111C171.627 35.963 172.688 33.3222 174.808 31.1889C176.921 29.063 179.541 28 182.67 28H226.84C229.969 28 232.59 29.063 234.702 31.1889C236.823 33.3222 237.883 35.963 237.883 39.1111V83.5556C237.883 86.7037 236.823 89.3407 234.702 91.4667C232.59 93.6 229.969 94.6667 226.84 94.6667H182.67ZM193.713 228V194.667H171.627V172.444H215.798V205.778H237.883V228H193.713ZM149.542 150.222V128H193.713V150.222H149.542ZM105.372 150.222V128H83.2873V105.778H149.542V128H127.457V150.222H105.372ZM116.415 94.6667V50.2222H138.5V72.4444H160.585V94.6667H116.415ZM63.9629 69.6667V53H80.5266V69.6667H63.9629ZM63.9629 203V186.333H80.5266V203H63.9629ZM196.473 69.6667V53H213.037V69.6667H196.473Z" fill="url(#paint0_linear_758_5755)"/>
</g>
<defs>
<filter id="filter0_ddd_758_5755" x="0.342106" y="0.368421" width="276.316" height="297.368" filterUnits="userSpaceOnUse" color-interpolation-filters="sRGB">
<feFlood flood-opacity="0" result="BackgroundImageFix"/>
<feColorMatrix in="SourceAlpha" type="matrix" values="0 0 0 0 0 0 0 0 0 0 0 0 0 0 0 0 0 0 127 0" result="hardAlpha"/>
<feOffset dy="1.31579"/>
<feGaussianBlur stdDeviation="1.97368"/>
<feColorMatrix type="matrix" values="0 0 0 0 0.25098 0 0 0 0 0.32549 0 0 0 0 0.819608 0 0 0 0.1 0"/>
<feBlend mode="normal" in2="BackgroundImageFix" result="effect1_dropShadow_758_5755"/>
<feColorMatrix in="SourceAlpha" type="matrix" values="0 0 0 0 0 0 0 0 0 0 0 0 0 0 0 0 0 0 127 0" result="hardAlpha"/>
<feOffset dy="17.1053"/>
<feGaussianBlur stdDeviation="5.26316"/>
<feColorMatrix type="matrix" values="0 0 0 0 0.25098 0 0 0 0 0.32549 0 0 0 0 0.819608 0 0 0 0.05 0"/>
<feBlend mode="normal" in2="effect1_dropShadow_758_5755" result="effect2_dropShadow_758_5755"/>
<feColorMatrix in="SourceAlpha" type="matrix" values="0 0 0 0 0 0 0 0 0 0 0 0 0 0 0 0 0 0 127 0" result="hardAlpha"/>
<feOffset dy="31.5789"/>
<feGaussianBlur stdDeviation="6.57895"/>
<feColorMatrix type="matrix" values="0 0 0 0 0.25098 0 0 0 0 0.32549 0 0 0 0 0.819608 0 0 0 0.01 0"/>
<feBlend mode="normal" in2="effect2_dropShadow_758_5755" result="effect3_dropShadow_758_5755"/>
<feBlend mode="normal" in="SourceGraphic" in2="effect3_dropShadow_758_5755" result="shape"/>
</filter>
<linearGradient id="paint0_linear_758_5755" x1="138.5" y1="28" x2="-121.731" y2="432.758" gradientUnits="userSpaceOnUse">
<stop stop-color="#384BCA"/>
<stop offset="1" stop-color="#7B8CFF"/>
</linearGradient>
</defs>
</svg>
