<svg width="20" height="20" viewBox="0 0 20 20" fill="none" xmlns="http://www.w3.org/2000/svg">
<g clip-path="url(#clip0_669_4400)">
<path d="M19.9999 9.3726C19.8793 7.42262 19.1908 5.55053 18.0192 3.98712C16.8476 2.42372 15.244 1.23735 13.4063 0.574266C11.5686 -0.0888154 9.57695 -0.199619 7.677 0.255516C5.77705 0.710651 4.05182 1.71183 2.71399 3.13562C1.37617 4.55941 0.484232 6.34357 0.14815 8.26815C-0.187933 10.1927 0.0465285 12.1736 0.822628 13.9665C1.59873 15.7595 2.88254 17.2861 4.51579 18.3582C6.14904 19.4304 8.06033 20.0011 10.014 20.0001H15.8332C16.9379 19.999 17.9971 19.5597 18.7783 18.7785C19.5594 17.9973 19.9988 16.9382 19.9999 15.8334V9.3726ZM18.3332 15.8334C18.3332 16.4965 18.0698 17.1324 17.601 17.6012C17.1321 18.07 16.4962 18.3334 15.8332 18.3334H10.014C8.83814 18.3329 7.67557 18.0845 6.60211 17.6045C5.52866 17.1245 4.56843 16.4236 3.78403 15.5476C2.99584 14.672 2.40397 13.638 2.04811 12.5149C1.69225 11.3919 1.58061 10.2057 1.7207 9.03594C1.94189 7.19089 2.77086 5.47193 4.0769 4.15004C5.38294 2.82815 7.09178 1.97853 8.93403 1.7351C9.29339 1.69006 9.65519 1.66724 10.0174 1.66677C11.9594 1.66147 13.8414 2.34002 15.3332 3.58344C16.2045 4.30756 16.9196 5.20106 17.4353 6.20979C17.951 7.21853 18.2565 8.32147 18.3332 9.45177V15.8334Z" fill="#667085"/>
<path d="M6.66653 7.49992H9.99986C10.2209 7.49992 10.4328 7.41212 10.5891 7.25584C10.7454 7.09956 10.8332 6.8876 10.8332 6.66658C10.8332 6.44557 10.7454 6.23361 10.5891 6.07733C10.4328 5.92105 10.2209 5.83325 9.99986 5.83325H6.66653C6.44552 5.83325 6.23356 5.92105 6.07728 6.07733C5.921 6.23361 5.8332 6.44557 5.8332 6.66658C5.8332 6.8876 5.921 7.09956 6.07728 7.25584C6.23356 7.41212 6.44552 7.49992 6.66653 7.49992Z" fill="#667085"/>
<path d="M13.3332 9.16675H6.66653C6.44552 9.16675 6.23356 9.25455 6.07728 9.41083C5.921 9.56711 5.8332 9.77907 5.8332 10.0001C5.8332 10.2211 5.921 10.4331 6.07728 10.5893C6.23356 10.7456 6.44552 10.8334 6.66653 10.8334H13.3332C13.5542 10.8334 13.7662 10.7456 13.9225 10.5893C14.0787 10.4331 14.1665 10.2211 14.1665 10.0001C14.1665 9.77907 14.0787 9.56711 13.9225 9.41083C13.7662 9.25455 13.5542 9.16675 13.3332 9.16675Z" fill="#667085"/>
<path d="M13.3332 12.5H6.66653C6.44552 12.5 6.23356 12.5878 6.07728 12.7441C5.921 12.9004 5.8332 13.1123 5.8332 13.3333C5.8332 13.5544 5.921 13.7663 6.07728 13.9226C6.23356 14.0789 6.44552 14.1667 6.66653 14.1667H13.3332C13.5542 14.1667 13.7662 14.0789 13.9225 13.9226C14.0787 13.7663 14.1665 13.5544 14.1665 13.3333C14.1665 13.1123 14.0787 12.9004 13.9225 12.7441C13.7662 12.5878 13.5542 12.5 13.3332 12.5Z" fill="#667085"/>
</g>
<defs>
<clipPath id="clip0_669_4400">
<rect width="20" height="20" fill="white"/>
</clipPath>
</defs>
</svg>
