<svg width="12" height="12" viewBox="0 0 12 12" fill="none" xmlns="http://www.w3.org/2000/svg">
<g id="fi-rr-crown" clip-path="url(#clip0_1642_3642)">
<path id="Vector" d="M11.383 2.28282C11.2003 2.20671 10.9991 2.18671 10.805 2.22535C10.6108 2.26399 10.4326 2.35954 10.293 2.49982L9 3.79282L6.707 1.49982C6.51947 1.31235 6.26516 1.20703 6 1.20703C5.73484 1.20703 5.48053 1.31235 5.293 1.49982L3 3.79282L1.707 2.49982C1.56715 2.36001 1.38898 2.2648 1.19503 2.22623C1.00108 2.18767 0.800045 2.20747 0.617345 2.28314C0.434646 2.35881 0.278483 2.48695 0.168598 2.65136C0.0587141 2.81577 4.22243e-05 3.00907 0 3.20682L0 8.49982C0.000793929 9.16262 0.264441 9.79804 0.73311 10.2667C1.20178 10.7354 1.8372 10.999 2.5 10.9998H9.5C10.1628 10.999 10.7982 10.7354 11.2669 10.2667C11.7356 9.79804 11.9992 9.16262 12 8.49982V3.20682C12 3.00905 11.9415 2.81571 11.8316 2.65124C11.7218 2.48677 11.5657 2.35856 11.383 2.28282ZM11 8.49982C11 8.89764 10.842 9.27917 10.5607 9.56048C10.2794 9.84178 9.89782 9.99982 9.5 9.99982H2.5C2.10218 9.99982 1.72064 9.84178 1.43934 9.56048C1.15804 9.27917 1 8.89764 1 8.49982V3.20682L2.6465 4.85332C2.74026 4.94705 2.86742 4.99971 3 4.99971C3.13258 4.99971 3.25974 4.94705 3.3535 4.85332L6 2.20682L8.6465 4.85332C8.74026 4.94705 8.86742 4.99971 9 4.99971C9.13258 4.99971 9.25974 4.94705 9.3535 4.85332L11 3.20682V8.49982Z" fill="white"/>
</g>
<defs>
<clipPath id="clip0_1642_3642">
<rect width="12" height="12" fill="white"/>
</clipPath>
</defs>
</svg>
