<svg width="25" height="24" viewBox="0 0 25 24" fill="none" xmlns="http://www.w3.org/2000/svg">
<g clip-path="url(#clip0_604_2079)">
<path d="M24.5 16L24.5 15.87C24.4957 15.4225 24.343 14.989 24.0657 14.6377C23.7884 14.2864 23.4023 14.0371 22.968 13.929C22.5452 13.8132 22.1721 13.5617 21.9061 13.2132C21.6402 12.8647 21.4962 12.4384 21.4962 12C21.4962 11.5616 21.6402 11.1353 21.9061 10.7868C22.1721 10.4383 22.5452 10.1868 22.968 10.071C23.4023 9.9629 23.7884 9.71362 24.0657 9.36231C24.343 9.01099 24.4957 8.57754 24.5 8.13L24.5 8C24.4984 6.67441 23.9711 5.40356 23.0338 4.46622C22.0964 3.52888 20.8256 3.00159 19.5 3L3.5 3C2.70435 3 1.94129 3.31607 1.37868 3.87868C0.81607 4.44129 0.5 5.20435 0.5 6L0.5 8.13C0.504251 8.57754 0.657013 9.01099 0.934299 9.3623C1.21159 9.71362 1.59769 9.9629 2.032 10.071C2.45484 10.1868 2.82792 10.4383 3.09385 10.7868C3.35979 11.1353 3.50383 11.5616 3.50383 12C3.50383 12.4384 3.35979 12.8647 3.09385 13.2132C2.82792 13.5617 2.45484 13.8132 2.032 13.929C1.59769 14.0371 1.21159 14.2864 0.934299 14.6377C0.657012 14.989 0.504251 15.4225 0.499999 15.87L0.499999 18C0.499999 18.7956 0.81607 19.5587 1.37868 20.1213C1.94129 20.6839 2.70435 21 3.5 21L19.5 21C20.8256 20.9984 22.0964 20.4711 23.0338 19.5338C23.9711 18.5964 24.4984 17.3256 24.5 16V16ZM2.5 18L2.563 15.857C3.41158 15.6221 4.15896 15.1138 4.68923 14.4109C5.21949 13.708 5.50302 12.8498 5.49585 11.9693C5.48867 11.0889 5.19118 10.2354 4.64952 9.54122C4.10786 8.84706 3.3523 8.35101 2.5 8.13L2.5 6C2.5 5.73478 2.60536 5.48043 2.79289 5.29289C2.98043 5.10536 3.23478 5 3.5 5L7.5 5L7.5 7C7.5 7.26522 7.60536 7.51957 7.79289 7.70711C7.98043 7.89464 8.23478 8 8.5 8C8.76522 8 9.01957 7.89464 9.20711 7.70711C9.39464 7.51957 9.5 7.26522 9.5 7L9.5 5L19.5 5C20.2956 5 21.0587 5.31607 21.6213 5.87868C22.1839 6.44129 22.5 7.20435 22.5 8L22.437 8.143C21.5936 8.37722 20.85 8.881 20.3196 9.57742C19.7893 10.2738 19.5015 11.1247 19.5 12C19.5075 12.8872 19.8047 13.7476 20.3462 14.4503C20.8878 15.153 21.6441 15.6596 22.5 15.893L22.5 16C22.5 16.7956 22.1839 17.5587 21.6213 18.1213C21.0587 18.6839 20.2956 19 19.5 19L9.5 19L9.5 17C9.5 16.7348 9.39464 16.4804 9.20711 16.2929C9.01957 16.1054 8.76522 16 8.5 16C8.23478 16 7.98043 16.1054 7.79289 16.2929C7.60536 16.4804 7.5 16.7348 7.5 17L7.5 19L3.5 19C3.23478 19 2.98043 18.8946 2.79289 18.7071C2.60536 18.5196 2.5 18.2652 2.5 18Z" fill="url(#paint0_linear_604_2079)"/>
<path d="M9.5 13L9.5 11C9.5 10.7348 9.39464 10.4804 9.2071 10.2929C9.01957 10.1054 8.76521 10 8.49999 10C8.23478 10 7.98042 10.1054 7.79288 10.2929C7.60535 10.4804 7.49999 10.7348 7.49999 11L7.49999 13C7.49999 13.2652 7.60535 13.5196 7.79288 13.7071C7.98042 13.8946 8.23478 14 8.49999 14C8.76521 14 9.01957 13.8946 9.2071 13.7071C9.39464 13.5196 9.5 13.2652 9.5 13Z" fill="url(#paint1_linear_604_2079)"/>
</g>
<defs>
<linearGradient id="paint0_linear_604_2079" x1="24.5" y1="12" x2="-15.2772" y2="-21.8881" gradientUnits="userSpaceOnUse">
<stop stop-color="#384BCA"/>
<stop offset="1" stop-color="#7B8CFF"/>
</linearGradient>
<linearGradient id="paint1_linear_604_2079" x1="9.5" y1="12" x2="4.30912" y2="10.3416" gradientUnits="userSpaceOnUse">
<stop stop-color="#384BCA"/>
<stop offset="1" stop-color="#7B8CFF"/>
</linearGradient>
<clipPath id="clip0_604_2079">
<rect width="24" height="24" fill="white" transform="translate(24.5) rotate(90)"/>
</clipPath>
</defs>
</svg>
