<svg width="20" height="19" viewBox="0 0 20 19" fill="none" xmlns="http://www.w3.org/2000/svg">
<path d="M14.5833 0.597107C13.6449 0.611703 12.727 0.873651 11.9223 1.3565C11.1175 1.83935 10.4545 2.526 9.99999 3.34711C9.54552 2.526 8.88243 1.83935 8.07769 1.3565C7.27294 0.873651 6.35503 0.611703 5.41666 0.597107C3.92077 0.662099 2.51141 1.31649 1.49648 2.4173C0.48154 3.51812 -0.0564681 4.97588 -9.32673e-06 6.47211C-9.32673e-06 10.2613 3.98832 14.3996 7.33332 17.2054C8.08017 17.833 9.02445 18.1771 9.99999 18.1771C10.9755 18.1771 11.9198 17.833 12.6667 17.2054C16.0117 14.3996 20 10.2613 20 6.47211C20.0564 4.97588 19.5184 3.51812 18.5035 2.4173C17.4886 1.31649 16.0792 0.662099 14.5833 0.597107ZM11.5958 15.9304C11.1491 16.3066 10.584 16.5129 9.99999 16.5129C9.41603 16.5129 8.85084 16.3066 8.40416 15.9304C4.12249 12.3379 1.66666 8.89127 1.66666 6.47211C1.60969 5.4177 1.97196 4.38355 2.67446 3.59519C3.37696 2.80683 4.36269 2.32823 5.41666 2.26377C6.47063 2.32823 7.45636 2.80683 8.15885 3.59519C8.86135 4.38355 9.22362 5.4177 9.16666 6.47211C9.16666 6.69312 9.25445 6.90508 9.41074 7.06136C9.56701 7.21764 9.77898 7.30544 9.99999 7.30544C10.221 7.30544 10.433 7.21764 10.5892 7.06136C10.7455 6.90508 10.8333 6.69312 10.8333 6.47211C10.7764 5.4177 11.1386 4.38355 11.8411 3.59519C12.5436 2.80683 13.5294 2.32823 14.5833 2.26377C15.6373 2.32823 16.623 2.80683 17.3255 3.59519C18.028 4.38355 18.3903 5.4177 18.3333 6.47211C18.3333 8.89127 15.8775 12.3379 11.5958 15.9271V15.9304Z" fill="#48505E"/>
</svg>
