<svg width="21" height="20" viewBox="0 0 21 20" fill="none" xmlns="http://www.w3.org/2000/svg">
<g opacity="0.8" clip-path="url(#clip0_637_2190)">
<path d="M19.7677 7.55751L13.4468 1.23584C12.6645 0.455835 11.6049 0.0178223 10.5002 0.0178223C9.39546 0.0178223 8.33581 0.455835 7.55351 1.23584L1.23268 7.55751C0.999699 7.789 0.814986 8.06443 0.689247 8.36783C0.563507 8.67124 0.499243 8.99658 0.500178 9.32501V17.5058C0.500178 18.1689 0.76357 18.8048 1.23241 19.2736C1.70125 19.7425 2.33714 20.0058 3.00018 20.0058H18.0002C18.6632 20.0058 19.2991 19.7425 19.7679 19.2736C20.2368 18.8048 20.5002 18.1689 20.5002 17.5058V9.32501C20.5011 8.99658 20.4368 8.67124 20.3111 8.36783C20.1854 8.06443 20.0007 7.789 19.7677 7.55751ZM13.0002 18.3392H8.00018V15.0608C8.00018 14.3978 8.26357 13.7619 8.73241 13.2931C9.20125 12.8242 9.83714 12.5608 10.5002 12.5608C11.1632 12.5608 11.7991 12.8242 12.2679 13.2931C12.7368 13.7619 13.0002 14.3978 13.0002 15.0608V18.3392ZM18.8335 17.5058C18.8335 17.7269 18.7457 17.9388 18.5894 18.0951C18.4332 18.2514 18.2212 18.3392 18.0002 18.3392H14.6668V15.0608C14.6668 13.9558 14.2279 12.896 13.4465 12.1146C12.6651 11.3332 11.6052 10.8942 10.5002 10.8942C9.39511 10.8942 8.3353 11.3332 7.5539 12.1146C6.7725 12.896 6.33351 13.9558 6.33351 15.0608V18.3392H3.00018C2.77916 18.3392 2.5672 18.2514 2.41092 18.0951C2.25464 17.9388 2.16684 17.7269 2.16684 17.5058V9.32501C2.16762 9.10416 2.25534 8.8925 2.41101 8.73584L8.73185 2.41668C9.2016 1.94912 9.8374 1.68663 10.5002 1.68663C11.163 1.68663 11.7988 1.94912 12.2685 2.41668L18.5893 8.73834C18.7444 8.89438 18.8321 9.10503 18.8335 9.32501V17.5058Z" fill="#667085"/>
</g>
<defs>
<clipPath id="clip0_637_2190">
<rect width="20" height="20" fill="white" transform="translate(0.5)"/>
</clipPath>
</defs>
</svg>
