<svg width="25" height="24" viewBox="0 0 25 24" fill="none" xmlns="http://www.w3.org/2000/svg">
<g id="fi-sr-thumbs-up" clip-path="url(#clip0_826_6320)">
<path id="Vector" d="M22.9398 7.72139C22.4709 7.181 21.8913 6.74767 21.2404 6.45075C20.5894 6.15382 19.8823 6.00024 19.1668 6.00039H15.1778L15.5138 3.95939C15.6327 3.24065 15.4893 2.50313 15.1097 1.88133C14.7301 1.25954 14.1396 0.794906 13.446 0.572185C12.7524 0.349464 12.0018 0.383494 11.3312 0.668068C10.6606 0.952642 10.1146 1.4688 9.79281 2.12239L8.16681 5.41739V21.0004H18.4668C19.6703 20.9955 20.832 20.5587 21.7406 19.7696C22.6492 18.9804 23.2444 17.8913 23.4178 16.7004L24.1228 11.7004C24.2225 10.9911 24.1684 10.2687 23.9643 9.58215C23.7602 8.89561 23.4108 8.261 22.9398 7.72139Z" fill="url(#paint0_linear_826_6320)"/>
<path id="Vector_2" d="M0.166656 11V16C0.168244 17.3256 0.695538 18.5964 1.63288 19.5338C2.57021 20.4711 3.84106 20.9984 5.16666 21H6.16666V6H5.16666C3.84106 6.00159 2.57021 6.52888 1.63288 7.46622C0.695538 8.40356 0.168244 9.67441 0.166656 11H0.166656Z" fill="url(#paint1_linear_826_6320)"/>
</g>
<defs>
<linearGradient id="paint0_linear_826_6320" x1="16.1691" y1="0.426773" x2="-12.694" y2="35.5669" gradientUnits="userSpaceOnUse">
<stop stop-color="#384BCA"/>
<stop offset="1" stop-color="#7B8CFF"/>
</linearGradient>
<linearGradient id="paint1_linear_826_6320" x1="3.16666" y1="6" x2="-16.1302" y2="18.0802" gradientUnits="userSpaceOnUse">
<stop stop-color="#384BCA"/>
<stop offset="1" stop-color="#7B8CFF"/>
</linearGradient>
<clipPath id="clip0_826_6320">
<rect width="24" height="24" fill="white" transform="translate(0.166656)"/>
</clipPath>
</defs>
</svg>
