<svg width="20" height="20" viewBox="0 0 20 20" fill="none" xmlns="http://www.w3.org/2000/svg">
<g id="fi-rr-bell" clip-path="url(#clip0_456_1489)">
<path id="Vector" d="M18.7957 11.3851L17.2124 5.6884C16.7483 4.01951 15.7397 2.55364 14.3469 1.52379C12.954 0.493945 11.2569 -0.0407771 9.5253 0.00462298C7.79367 0.0500231 6.12692 0.67294 4.78996 1.77436C3.45301 2.87578 2.52258 4.39249 2.14658 6.0834L0.920742 11.5959C0.785338 12.205 0.788469 12.8368 0.929903 13.4445C1.07134 14.0522 1.34746 14.6205 1.73789 15.1072C2.12833 15.5939 2.62309 15.9868 3.18567 16.2567C3.74824 16.5266 4.36426 16.6668 4.98824 16.6667H5.91658C6.10784 17.6086 6.61885 18.4555 7.36303 19.0637C8.1072 19.672 9.03878 20.0042 9.99991 20.0042C10.961 20.0042 11.8926 19.672 12.6368 19.0637C13.381 18.4555 13.892 17.6086 14.0832 16.6667H14.7816C15.4239 16.6668 16.0576 16.5183 16.633 16.2329C17.2085 15.9476 17.7102 15.533 18.0989 15.0216C18.4877 14.5103 18.7529 13.9159 18.8739 13.2851C18.9949 12.6543 18.9685 12.004 18.7966 11.3851H18.7957ZM9.99991 18.3334C9.48469 18.3313 8.98272 18.17 8.56266 17.8717C8.1426 17.5733 7.82498 17.1525 7.65324 16.6667H12.3466C12.1748 17.1525 11.8572 17.5733 11.4372 17.8717C11.0171 18.17 10.5151 18.3313 9.99991 18.3334ZM16.7716 14.0126C16.5394 14.3206 16.2385 14.5703 15.8929 14.7417C15.5473 14.9131 15.1665 15.0016 14.7807 15.0001H4.98824C4.6139 15 4.24434 14.9159 3.90686 14.7539C3.56938 14.5919 3.27258 14.3562 3.03838 14.0641C2.80417 13.7721 2.63854 13.4312 2.55371 13.0666C2.46888 12.702 2.46701 12.323 2.54824 11.9576L3.77324 6.44423C4.06854 5.11607 4.79933 3.92474 5.84946 3.05961C6.89958 2.19448 8.20876 1.70521 9.56889 1.66958C10.929 1.63395 12.262 2.054 13.356 2.86296C14.45 3.67192 15.2421 4.82336 15.6066 6.13423L17.1899 11.8309C17.2945 12.202 17.3112 12.5925 17.2386 12.9712C17.166 13.3499 17.0061 13.7064 16.7716 14.0126Z" fill="#48505E"/>
</g>
<defs>
<clipPath id="clip0_456_1489">
<rect width="20" height="20" fill="white"/>
</clipPath>
</defs>
</svg>
