<svg width="21" height="20" viewBox="0 0 21 20" fill="none" xmlns="http://www.w3.org/2000/svg">
<g id="&#240;&#159;&#166;&#134; icon &#34;coin 3d&#34;">
<g id="Group">
<path id="Vector" d="M9.81344 19.6666C14.681 19.6666 18.6269 15.3387 18.6269 9.99992C18.6269 4.66117 14.681 0.333252 9.81344 0.333252C4.94591 0.333252 1 4.66117 1 9.99992C1 15.3387 4.94591 19.6666 9.81344 19.6666Z" fill="#FFDD95" stroke="#FFAF40" stroke-width="0.6063" stroke-linecap="round"/>
<path id="Vector_2" d="M7.77908 2H5.04615M7.4401 17.6667H4.70717M6.08419 3.66667H3.35125M5.06725 5.66667H2.33432M5.74521 15.6667H3.01228M4.38929 8H1.65636M4.38929 13.3333H1.65636M4.05032 10.6667H1.31738" stroke="#FFAF40" stroke-width="0.6063" stroke-linecap="square"/>
<path id="Vector_3" d="M12.1865 20C17.054 20 20.9999 15.5228 20.9999 10C20.9999 4.47715 17.054 0 12.1865 0C7.31896 0 3.37305 4.47715 3.37305 10C3.37305 15.5228 7.31896 20 12.1865 20Z" fill="#FFAF40"/>
<path id="Vector_4" d="M12.186 17.3334C15.743 17.3334 18.6266 14.0502 18.6266 10.0001C18.6266 5.94999 15.743 2.66675 12.186 2.66675C8.62894 2.66675 5.74539 5.94999 5.74539 10.0001C5.74539 14.0502 8.62894 17.3334 12.186 17.3334Z" stroke="#FFDD95" stroke-width="0.6063" stroke-linecap="round" stroke-dasharray="0.61 2.12"/>
</g>
</g>
</svg>
