<svg width="50" height="50" viewBox="0 0 50 50" fill="none" xmlns="http://www.w3.org/2000/svg">
<g id="Frame 13737">
<rect width="50" height="50" rx="25" fill="#41C588"/>
<path id="Vector" d="M20.0463 33.1647L11.8817 25.0002C11.4911 24.6096 10.9612 24.3902 10.4088 24.3902C9.85639 24.3902 9.32658 24.6096 8.9359 25.0002C8.54533 25.3908 8.32593 25.9206 8.32593 26.4731C8.32593 27.0255 8.54533 27.5553 8.9359 27.946L17.1005 36.1106C17.4874 36.4977 17.9468 36.8047 18.4525 37.0142C18.9581 37.2237 19.5 37.3315 20.0474 37.3315C20.5947 37.3315 21.1366 37.2237 21.6423 37.0142C22.1479 36.8047 22.6073 36.4977 22.9942 36.1106L42.2692 16.8356C42.6598 16.4449 42.8792 15.9151 42.8792 15.3627C42.8792 14.8102 42.6598 14.2804 42.2692 13.8898C41.8785 13.4992 41.3487 13.2798 40.7963 13.2798C40.2439 13.2798 39.7141 13.4992 39.3234 13.8898L20.0463 33.1647Z" fill="white"/>
</g>
</svg>
