<svg width="21" height="20" viewBox="0 0 21 20" fill="none" xmlns="http://www.w3.org/2000/svg">
<g clip-path="url(#clip0_637_2198)">
<path d="M2.16667 12.5H9.66667V20H6.33333C5.22826 20 4.16846 19.561 3.38705 18.7796C2.60565 17.9982 2.16667 16.9384 2.16667 15.8333V12.5ZM20.5 9.16667C20.5 9.60869 20.3244 10.0326 20.0118 10.3452C19.6993 10.6577 19.2754 10.8333 18.8333 10.8333H11.3333V7.46417C11.0533 7.48583 10.7742 7.5 10.5 7.5C10.2258 7.5 9.94667 7.48583 9.66667 7.46417V10.8333H2.16667C1.72464 10.8333 1.30072 10.6577 0.988155 10.3452C0.675595 10.0326 0.5 9.60869 0.5 9.16667C0.5 8.28261 0.85119 7.43476 1.47631 6.80964C2.10143 6.18452 2.94928 5.83333 3.83333 5.83333H5.28167C4.8105 5.418 4.4365 4.90407 4.1862 4.328C3.9359 3.75193 3.81543 3.12784 3.83333 2.5C3.83333 2.27899 3.92113 2.06702 4.07741 1.91074C4.23369 1.75446 4.44565 1.66667 4.66667 1.66667C4.88768 1.66667 5.09964 1.75446 5.25592 1.91074C5.4122 2.06702 5.5 2.27899 5.5 2.5C5.5 4.685 7.47583 5.44167 8.97833 5.70083C8.42376 4.71755 8.08992 3.62531 8 2.5C8 1.83696 8.26339 1.20107 8.73223 0.732233C9.20107 0.263392 9.83696 0 10.5 0C11.163 0 11.7989 0.263392 12.2678 0.732233C12.7366 1.20107 13 1.83696 13 2.5C12.9101 3.62531 12.5762 4.71755 12.0217 5.70083C13.5242 5.44167 15.5 4.685 15.5 2.5C15.5 2.27899 15.5878 2.06702 15.7441 1.91074C15.9004 1.75446 16.1123 1.66667 16.3333 1.66667C16.5543 1.66667 16.7663 1.75446 16.9226 1.91074C17.0789 2.06702 17.1667 2.27899 17.1667 2.5C17.1846 3.12784 17.0641 3.75193 16.8138 4.328C16.5635 4.90407 16.1895 5.418 15.7183 5.83333H17.1667C18.0507 5.83333 18.8986 6.18452 19.5237 6.80964C20.1488 7.43476 20.5 8.28261 20.5 9.16667ZM9.66667 2.5C9.76726 3.38569 10.0511 4.24076 10.5 5.01083C10.9489 4.24076 11.2327 3.38569 11.3333 2.5C11.3333 2.27899 11.2455 2.06702 11.0893 1.91074C10.933 1.75446 10.721 1.66667 10.5 1.66667C10.279 1.66667 10.067 1.75446 9.91074 1.91074C9.75446 2.06702 9.66667 2.27899 9.66667 2.5ZM11.3333 20H14.6667C15.2138 20 15.7557 19.8922 16.2612 19.6828C16.7667 19.4734 17.226 19.1665 17.6129 18.7796C17.9999 18.3927 18.3068 17.9334 18.5162 17.4278C18.7256 16.9223 18.8333 16.3805 18.8333 15.8333V12.5H11.3333V20Z" fill="url(#paint0_linear_637_2198)"/>
</g>
<defs>
<linearGradient id="paint0_linear_637_2198" x1="10.5" y1="3.23589e-07" x2="-15.4559" y2="40.622" gradientUnits="userSpaceOnUse">
<stop stop-color="#384BCA"/>
<stop offset="1" stop-color="#7B8CFF"/>
</linearGradient>
<clipPath id="clip0_637_2198">
<rect width="20" height="20" fill="white" transform="translate(0.5)"/>
</clipPath>
</defs>
</svg>
