<svg width="51" height="48" viewBox="0 0 51 48" fill="none" xmlns="http://www.w3.org/2000/svg">
<rect width="51" height="48" rx="8" fill="url(#paint0_linear_1206_1953)"/>
<g clip-path="url(#clip0_1206_1953)">
<path d="M34.7658 14.735C34.467 14.4326 34.0953 14.2124 33.6866 14.0956C33.2778 13.9788 32.8459 13.9694 32.4325 14.0683L19.0991 16.8767C18.3313 16.982 17.6081 17.2996 17.011 17.7937C16.4139 18.2878 15.9666 18.9388 15.7194 19.6734C15.4723 20.408 15.4352 21.197 15.6123 21.9515C15.7893 22.7061 16.1735 23.3962 16.7216 23.9442L18.1533 25.375C18.2308 25.4525 18.2922 25.5445 18.3341 25.6457C18.376 25.7469 18.3976 25.8554 18.3975 25.965V28.605C18.3993 28.9762 18.4848 29.3422 18.6475 29.6758L18.6408 29.6817L18.6625 29.7033C18.9066 30.1943 19.3055 30.5913 19.7975 30.8333L19.8191 30.855L19.825 30.8483C20.1586 31.0111 20.5246 31.0965 20.8958 31.0983H23.5358C23.7567 31.0982 23.9686 31.1857 24.125 31.3417L25.5558 32.7725C25.9396 33.1605 26.3963 33.4688 26.8998 33.6794C27.4032 33.8901 27.9434 33.9991 28.4891 34C28.9439 33.9994 29.3956 33.9251 29.8266 33.78C30.5545 33.541 31.2011 33.1034 31.6935 32.5164C32.1859 31.9295 32.5045 31.2167 32.6133 30.4583L35.4258 17.0958C35.5298 16.6789 35.5237 16.242 35.408 15.8281C35.2923 15.4143 35.071 15.0376 34.7658 14.735ZM19.3333 24.1983L17.9008 22.7675C17.5672 22.442 17.3334 22.0281 17.2269 21.5743C17.1203 21.1206 17.1454 20.6458 17.2991 20.2058C17.4482 19.7545 17.7238 19.3554 18.0931 19.0561C18.4625 18.7568 18.91 18.5698 19.3825 18.5175L32.5833 15.7383L20.0625 28.2608V25.965C20.0637 25.637 19.9999 25.3119 19.8748 25.0087C19.7496 24.7054 19.5656 24.43 19.3333 24.1983ZM30.9758 30.1733C30.9118 30.6336 30.7208 31.067 30.4242 31.4247C30.1276 31.7825 29.7372 32.0505 29.2967 32.1986C28.8563 32.3468 28.3833 32.3693 27.9307 32.2635C27.4782 32.1578 27.0641 31.928 26.735 31.6L25.3016 30.1667C25.0703 29.9341 24.7951 29.7496 24.492 29.624C24.1889 29.4984 23.8639 29.4342 23.5358 29.435H21.24L33.7625 16.9167L30.9758 30.1733Z" fill="white"/>
</g>
<defs>
<linearGradient id="paint0_linear_1206_1953" x1="25.5" y1="7.76613e-07" x2="-35.137" y2="100.831" gradientUnits="userSpaceOnUse">
<stop stop-color="#384BCA"/>
<stop offset="1" stop-color="#7B8CFF"/>
</linearGradient>
<clipPath id="clip0_1206_1953">
<rect width="20" height="20" fill="white" transform="translate(15.5 14)"/>
</clipPath>
</defs>
</svg>
