<svg width="43" height="43" viewBox="0 0 43 43" fill="none" xmlns="http://www.w3.org/2000/svg">
<g id="&#240;&#159;&#166;&#134; icon &#34;coin 3d&#34;">
<g id="Group">
<path id="Vector" d="M18.5082 41.3002C28.73 41.3002 37.0165 32.2116 37.0165 21.0002C37.0165 9.78882 28.73 0.700195 18.5082 0.700195C8.28642 0.700195 0 9.78882 0 21.0002C0 32.2116 8.28642 41.3002 18.5082 41.3002Z" fill="#FFDD95" stroke="#FFAF40" stroke-width="0.6063" stroke-linecap="round"/>
<path id="Vector_2" d="M14.2366 4.2002H8.49744M13.5247 37.1002H7.78559M10.6773 7.70019H4.93817M8.54176 11.9002H2.8026M9.96547 32.9002H4.22631M7.11805 16.8002H1.37889M7.11805 28.0002H1.37889M6.4062 22.4002H0.667038" stroke="#FFAF40" stroke-width="0.6063" stroke-linecap="square"/>
<path id="Vector_3" d="M23.492 42C33.7138 42 42.0002 32.598 42.0002 21C42.0002 9.40202 33.7138 0 23.492 0C13.2702 0 4.98376 9.40202 4.98376 21C4.98376 32.598 13.2702 42 23.492 42Z" fill="#FFAF40"/>
<path id="Vector_4" d="M23.4909 36.4001C30.9607 36.4001 37.0161 29.5053 37.0161 21.0001C37.0161 12.4949 30.9607 5.6001 23.4909 5.6001C16.0211 5.6001 9.96564 12.4949 9.96564 21.0001C9.96564 29.5053 16.0211 36.4001 23.4909 36.4001Z" stroke="#FFDD95" stroke-width="0.6063" stroke-linecap="round" stroke-dasharray="0.61 2.12"/>
</g>
<g id="Object">
<path id="Vector_5" d="M35 28C31.134 28 28 31.134 28 35C28 38.866 31.134 42 35 42C38.866 42 42 38.866 42 35C42 31.134 38.866 28 35 28Z" fill="#12B76A" stroke="#FBFBFB" stroke-width="2" stroke-linecap="round" stroke-linejoin="round"/>
<path id="Vector_6" d="M32.6667 34.2224L32.6667 37.3335L35.7778 37.3335" stroke="#FBFBFB" stroke-linecap="round" stroke-linejoin="round"/>
<path id="Vector_7" d="M37.3333 32.6668L32.6666 37.3335" stroke="#FBFBFB" stroke-linecap="round" stroke-linejoin="round"/>
</g>
</g>
</svg>
