<svg width="109" height="107" viewBox="0 0 109 107" fill="none" xmlns="http://www.w3.org/2000/svg">
<g id="undraw_no_data_re_kwbl 1" clip-path="url(#clip0_1112_1829)">
<path id="Vector" d="M69.0523 23.8782H39.7433C39.0754 23.879 38.4351 24.1447 37.9628 24.617C37.4905 25.0893 37.2248 25.7296 37.224 26.3975V91.537L36.8881 91.6395L29.6982 93.8413C29.3574 93.9452 28.9894 93.9097 28.6748 93.7425C28.3602 93.5752 28.1249 93.2901 28.0204 92.9495L6.63352 23.0905C6.52944 22.7498 6.56491 22.3816 6.73214 22.067C6.89937 21.7524 7.18467 21.5171 7.52534 21.4127L18.6051 18.0201L50.7256 8.18829L61.8052 4.79569C61.9738 4.7438 62.151 4.72566 62.3267 4.74233C62.5023 4.75899 62.6729 4.81013 62.8287 4.89281C62.9846 4.97548 63.1226 5.08808 63.2349 5.22416C63.3472 5.36024 63.4315 5.51712 63.4831 5.68583L68.9498 23.5423L69.0523 23.8782Z" fill="#F0F1F3"/>
<path id="Vector_2" d="M75.4476 23.5423L68.8589 2.02118C68.7493 1.6626 68.5701 1.32913 68.3316 1.03983C68.093 0.750535 67.7998 0.511078 67.4687 0.335143C67.1376 0.159208 66.775 0.0502421 66.4018 0.0144773C66.0285 -0.0212875 65.6519 0.0168491 65.2934 0.126704L49.716 4.89481L17.5972 14.7283L2.01979 19.4981C1.29614 19.7203 0.690225 20.2206 0.335033 20.889C-0.0201583 21.5575 -0.095606 22.3396 0.125254 23.0637L22.6441 96.6142C22.8235 97.1987 23.1855 97.7103 23.677 98.0739C24.1685 98.4375 24.7636 98.634 25.375 98.6346C25.6579 98.6348 25.9393 98.5923 26.2096 98.5087L36.8879 95.2404L37.2238 95.1362V94.7852L36.8879 94.8877L26.1106 98.1879C25.4718 98.3826 24.7819 98.316 24.1922 98.0027C23.6025 97.6895 23.1611 97.1551 22.9649 96.5168L0.447788 22.9646C0.35056 22.6483 0.316673 22.316 0.348067 21.9866C0.379461 21.6572 0.475517 21.3373 0.63074 21.0451C0.785963 20.7529 0.997305 20.4942 1.25266 20.2838C1.50801 20.0733 1.80235 19.9154 2.11884 19.8189L17.6962 15.0491L49.8151 5.21728L65.3925 0.447492C65.6326 0.374232 65.8821 0.336878 66.1331 0.336644C66.6718 0.337854 67.1959 0.511507 67.6286 0.832169C68.0614 1.15283 68.3802 1.60365 68.5382 2.1186L75.0966 23.5423L75.2008 23.8783H75.5501L75.4476 23.5423Z" fill="#858D9D"/>
<path id="Vector_3" d="M20.6044 21.4674C20.2807 21.4672 19.9656 21.3632 19.7053 21.1708C19.445 20.9783 19.2533 20.7075 19.1582 20.3981L16.9949 13.3322C16.9368 13.1424 16.9166 12.943 16.9355 12.7454C16.9545 12.5478 17.0122 12.3558 17.1053 12.1805C17.1984 12.0052 17.3252 11.85 17.4783 11.7237C17.6314 11.5973 17.808 11.5024 17.9978 11.4444L47.5468 2.39791C47.9301 2.28094 48.3442 2.32083 48.6981 2.50884C49.0521 2.69684 49.317 3.01759 49.4347 3.40069L51.5979 10.4667C51.7148 10.8501 51.6749 11.2641 51.4869 11.618C51.2989 11.972 50.9782 12.2369 50.5952 12.3546L21.0461 21.4011C20.903 21.445 20.7541 21.4673 20.6044 21.4674Z" fill="url(#paint0_linear_1112_1829)"/>
<path id="Vector_4" d="M31.9365 7.55005C33.7916 7.55005 35.2955 6.04617 35.2955 4.19104C35.2955 2.33591 33.7916 0.832031 31.9365 0.832031C30.0813 0.832031 28.5775 2.33591 28.5775 4.19104C28.5775 6.04617 30.0813 7.55005 31.9365 7.55005Z" fill="url(#paint1_linear_1112_1829)"/>
<path id="Vector_5" d="M31.9365 6.31802C33.1112 6.31802 34.0635 5.36572 34.0635 4.19099C34.0635 3.01627 33.1112 2.06396 31.9365 2.06396C30.7617 2.06396 29.8094 3.01627 29.8094 4.19099C29.8094 5.36572 30.7617 6.31802 31.9365 6.31802Z" fill="white"/>
<path id="Vector_6" d="M101.213 97.7764H44.4459C44.0675 97.776 43.7046 97.6254 43.437 97.3578C43.1693 97.0902 43.0188 96.7273 43.0184 96.3488V28.3289C43.0188 27.9505 43.1693 27.5876 43.437 27.32C43.7046 27.0523 44.0675 26.9018 44.4459 26.9014H101.213C101.592 26.9018 101.955 27.0523 102.222 27.32C102.49 27.5876 102.64 27.9505 102.641 28.3289V96.3488C102.64 96.7273 102.49 97.0902 102.222 97.3578C101.955 97.6254 101.592 97.776 101.213 97.7764Z" fill="#D0D3D9"/>
<path id="Vector_7" d="M75.0968 23.5425H39.7433C38.9864 23.5436 38.2608 23.8447 37.7256 24.3799C37.1903 24.9151 36.8892 25.6407 36.8881 26.3976V94.8878L37.224 94.7854V26.3976C37.2248 25.7297 37.4905 25.0894 37.9628 24.6172C38.4351 24.1449 39.0754 23.8792 39.7433 23.8784H75.201L75.0968 23.5425ZM105.916 23.5425H39.7433C38.9864 23.5436 38.2608 23.8447 37.7256 24.3799C37.1903 24.9151 36.8892 25.6407 36.8881 26.3976V103.319C36.8892 104.076 37.1903 104.801 37.7256 105.337C38.2608 105.872 38.9864 106.173 39.7433 106.174H105.916C106.673 106.173 107.398 105.872 107.933 105.337C108.469 104.801 108.77 104.076 108.771 103.319V26.3976C108.77 25.6407 108.469 24.9151 107.933 24.3799C107.398 23.8447 106.673 23.5436 105.916 23.5425ZM108.435 103.319C108.434 103.987 108.168 104.627 107.696 105.099C107.224 105.572 106.584 105.837 105.916 105.838H39.7433C39.0754 105.837 38.4351 105.572 37.9628 105.099C37.4905 104.627 37.2248 103.987 37.224 103.319V26.3976C37.2248 25.7297 37.4905 25.0894 37.9628 24.6172C38.4351 24.1449 39.0754 23.8792 39.7433 23.8784H105.916C106.584 23.8792 107.224 24.1449 107.696 24.6172C108.168 25.0894 108.434 25.7297 108.435 26.3976V103.319Z" fill="#858D9D"/>
<path id="Vector_8" d="M88.281 30.932H57.3781C56.9774 30.9315 56.5932 30.7721 56.3098 30.4887C56.0264 30.2054 55.867 29.8212 55.8666 29.4204V22.0306C55.867 21.6298 56.0264 21.2456 56.3098 20.9623C56.5932 20.6789 56.9774 20.5195 57.3781 20.519H88.281C88.6817 20.5195 89.066 20.6789 89.3493 20.9623C89.6327 21.2456 89.7921 21.6298 89.7926 22.0306V29.4204C89.7921 29.8212 89.6327 30.2054 89.3493 30.4887C89.066 30.7721 88.6817 30.9315 88.281 30.932Z" fill="url(#paint2_linear_1112_1829)"/>
<path id="Vector_9" d="M72.8295 21.0232C74.6846 21.0232 76.1885 19.5193 76.1885 17.6642C76.1885 15.8091 74.6846 14.3052 72.8295 14.3052C70.9743 14.3052 69.4705 15.8091 69.4705 17.6642C69.4705 19.5193 70.9743 21.0232 72.8295 21.0232Z" fill="url(#paint3_linear_1112_1829)"/>
<path id="Vector_10" d="M72.8295 19.7101C73.9595 19.7101 74.8755 18.7941 74.8755 17.6641C74.8755 16.5342 73.9595 15.6182 72.8295 15.6182C71.6996 15.6182 70.7836 16.5342 70.7836 17.6641C70.7836 18.7941 71.6996 19.7101 72.8295 19.7101Z" fill="white"/>
</g>
<defs>
<linearGradient id="paint0_linear_1112_1829" x1="34.2962" y1="2.33203" x2="17.154" y2="51.0316" gradientUnits="userSpaceOnUse">
<stop stop-color="#4B70B7"/>
<stop offset="1" stop-color="#1746A2"/>
</linearGradient>
<linearGradient id="paint1_linear_1112_1829" x1="31.9365" y1="0.832031" x2="23.2179" y2="14.477" gradientUnits="userSpaceOnUse">
<stop stop-color="#4B70B7"/>
<stop offset="1" stop-color="#1746A2"/>
</linearGradient>
<linearGradient id="paint2_linear_1112_1829" x1="72.8296" y1="20.519" x2="67.2047" y2="49.2004" gradientUnits="userSpaceOnUse">
<stop stop-color="#4B70B7"/>
<stop offset="1" stop-color="#1746A2"/>
</linearGradient>
<linearGradient id="paint3_linear_1112_1829" x1="72.8295" y1="14.3052" x2="64.1109" y2="27.9501" gradientUnits="userSpaceOnUse">
<stop stop-color="#4B70B7"/>
<stop offset="1" stop-color="#1746A2"/>
</linearGradient>
<clipPath id="clip0_1112_1829">
<rect width="108.771" height="106.174" fill="white"/>
</clipPath>
</defs>
</svg>
